# AST/ASF file generated using VICON BodyLanguage
# -----------------------------------------------
:version 1.10
:name VICON
:units
  mass 1.0
  length 0.45
  angle deg
:documentation
   .ast/.asf automatically generated from VICON data using
   VICON BodyBuilder and BodyLanguage model FoxedUp or BRILLIANT.MOD
:root
   order TX TY TZ RX RY RZ
   axis XYZ
   position 0 0 0  
   orientation 0 0 0 
:bonedata
  begin
     id 1 
     name lhipjoint
     direction 0.623415 -0.642378 0.445763 
     length 2.49859 
     axis 0 0 0  XYZ
  end
  begin
     id 2 
     name lfemur
     direction 0.34202 -0.939693 0  
     length 6.69689  
     axis 0 0 20  XYZ
    dof rx ry rz
    limits (-160.0 20.0)
           (-70.0 70.0)
           (-60.0 70.0)
  end
  begin
     id 3 
     name ltibia
     direction 0.34202 -0.939693 0   
     length 7.37574   
     axis 0 0 20   XYZ
    dof rx
    limits (-10.0 170.0)
  end
  begin
     id 4 
     name lfoot
     direction 0.084323 -0.231675 0.969132   
     length 2.09111   
     axis -90 7.62852e-016 20   XYZ
    dof rx rz
    limits (-45.0 90.0)
           (-70.0 20.0)
  end
  begin
     id 5 
     name ltoes
     direction 1.5357e-011 -4.21957e-011 1   
     length 1.04989   
     axis -90 7.62852e-016 20   XYZ
    dof rx
    limits (-90.0 20.0)
  end
  begin
     id 6 
     name rhipjoint
     direction -0.605402 -0.653903 0.45376   
     length 2.45455  
     axis 0 0 0  XYZ 
  end
  begin
     id 7 
     name rfemur
     direction -0.34202 -0.939693 0   
     length 6.64523   
     axis 0 0 -20   XYZ
    dof rx ry rz
    limits (-160.0 20.0)
           (-70.0 70.0)
           (-70.0 60.0)
  end
  begin
     id 8 
     name rtibia
     direction -0.34202 -0.939693 0   
     length 7.3339   
     axis 0 0 -20   XYZ
    dof rx
    limits (-10.0 170.0)
 end
 begin
     id 9 
     name rfoot
     direction -0.120854 -0.332043 0.93549   
     length 2.23135  
     axis -90 -7.62852e-016 -20   XYZ
    dof rx rz
    limits (-45.0 90.0)
           (-20.0 70.0)
  end
  begin
     id 10 
     name rtoes
     direction -1.53563e-011 -4.21914e-011 1   
     length 1.10614   
     axis -90 -7.62852e-016 -20   XYZ
    dof rx
    limits (-90.0 20.0)
  end
  begin
     id 11 
     name lowerback
     direction 0.0319682 0.998615 -0.0417941   
     length 2.02718   
     axis 0 0 0   XYZ
    dof rx ry rz
    limits (-20.0 45.0)
           (-30.0 30.0)
           (-30.0 30.0)
  end
  begin
     id 12 
     name upperback
     direction 7.63181e-005 0.995808 0.0914691   
     length 1.97539   
     axis 0 0 0   XYZ
    dof rx ry rz
    limits (-20.0 45.0)
           (-30.0 30.0)
           (-30.0 30.0)
  end
  begin
     id 13 
     name thorax
     direction -0.016423 0.993627 0.111514   
     length 2.00349   
     axis 0 0 0   XYZ
    dof rx ry rz
    limits (-20.0 45.0)
           (-30.0 30.0)
           (-30.0 30.0)
  end
  begin
     id 14 
     name lowerneck
     direction -0.174763 0.981668 -0.0760716   
     length 1.71436   
     axis 0 0 0   XYZ
    dof rx ry rz
    limits (-20.0 45.0)
           (-30.0 30.0)
           (-30.0 30.0)
  end
  begin
     id 15 
     name upperneck
     direction 0.345458 0.934587 -0.0848868   
     length 1.72805   
     axis 0 0 0   XYZ
    dof rx ry rz
    limits (-20.0 45.0)
           (-30.0 30.0)
           (-30.0 30.0)
  end
  begin
     id 16
     name head
     direction 0.13001 0.989848 -0.0574291  
     length 1.767  
     axis 0 0 0   XYZ
    dof rx ry rz
    limits (-20.0 45.0)
           (-30.0 30.0)
           (-30.0 30.0)
  end
  begin
     id 17 
     name lclavicle
     direction 0.952951 0.290122 0.0878234  
     length 3.54654  
     axis 0 0 0   XYZ
    dof ry rz
    limits (-20.0 10.0)
           (0.0 20.0)
  end
  begin
     id 18 
     name lhumerus
     direction 1 -4.48957e-011 -4.56525e-028   
     length 5.19807   
     axis 180 -30 -90   XYZ
    dof rx ry rz
    limits (-60.0 90.0)
           (-90.0 90.0)
           (-90.0 90.0)
  end
  begin
     id 19
     name lradius
     direction 1 -4.48979e-011 -2.0317e-027   
     length 3.0937   
     axis 180 -30 -90   XYZ
    dof rx
    limits (-10.0 170.0)
  end
  begin
     id 20
     name lwrist
     direction 1 -4.48953e-011 -3.05809e-027   
     length 1.54685   
     axis 8.48514e-016 90 90   XYZ
    dof ry
    limits (-180.0 0.0)
 end
  begin
     id 21 
     name lhand
     direction 1 -4.48952e-011 -6.11639e-027   
     length 0.672632   
     axis 3.9013e-015 90 90   XYZ
    dof rx rz
    limits (-90.0 90.0)
           (-45.0 45.0)
  end
  begin
     id 22 
     name lfingers
     direction 1 -4.48925e-011 -1.22426e-026   
     length 0.542293   
     axis 7.80276e-015 90 90   XYZ
    dof rx
    limits (0.0 90.0)
  end
  begin
     id 23
     name lthumb
     direction 0.707107 -6.3486e-011 0.707107   
     length 0.778628   
     axis -90 45 5.37419e-014   XYZ
    dof rx rz
    limits (-45.0 45.0)
           (-45.0 45.0)
  end
  begin
     id 24 
     name rclavicle
     direction -0.960732 0.273675 -0.0457849   
     length 3.52079  
     axis 0 0 0   XYZ 
    dof ry rz
    limits (-10.0 20.0)
           (-20.0 0.0)
  end
  begin
     id 25 
     name rhumerus
     direction -1 -4.48976e-011 -1.63613e-027  
     length 5.45222   
     axis 180 30 90   XYZ
    dof rx ry rz
    limits (-90.0 60.0)
           (-90.0 90.0)
           (-90.0 90.0)
  end
  begin
     id 26 
     name rradius
     direction -1 -4.48957e-011 -7.00033e-028   
     length 3.01284   
     axis 180 30 90   XYZ
    dof rx
    limits (-10.0 170.0)
  end
  begin
     id 27 
     name rwrist
     direction -1 -4.48983e-011 -3.05543e-027   
     length 1.50642   
     axis 8.48514e-016 -90 -90   XYZ
    dof ry
    limits (-180.0 0.0)
  end
  begin
     id 28
     name rhand
     direction -1 -4.48984e-011 -6.11072e-027   
     length 0.622296   
     axis 3.9013e-015 -90 -90   XYZ
    dof rx rz
    limits (-90.0 90.0)
           (-45.0 45.0)
  end
  begin
     id 29
     name rfingers
     direction -1 -4.48865e-011 -1.22637e-026   
     length 0.501711   
     axis 7.80276e-015 -90 -90   XYZ
    dof rx
    limits (0.0 90.0)
  end
  begin
     id 30
     name rthumb
     direction -0.707107 -6.34932e-011 0.707107   
     length 0.72036   
     axis -90 -45 -5.37419e-014   XYZ
    dof rx rz
    limits (-45.0 45.0)
           (-45.0 45.0)
  end
:hierarchy
  begin
    root lhipjoint rhipjoint lowerback
    lhipjoint lfemur
    lfemur ltibia
    ltibia lfoot
    lfoot ltoes
    rhipjoint rfemur
    rfemur rtibia
    rtibia rfoot
    rfoot rtoes
    lowerback upperback
    upperback thorax
    thorax lowerneck lclavicle rclavicle
    lowerneck upperneck
    upperneck head
    lclavicle lhumerus
    lhumerus lradius
    lradius lwrist
    lwrist lhand lthumb
    lhand lfingers
    rclavicle rhumerus
    rhumerus rradius
    rradius rwrist
    rwrist rhand rthumb
    rhand rfingers
  end

#!OML:ASF H:\Not Pregnant\Project 1\Capture day 1\Session 1\non-pregnant.ASF
:FULLY-SPECIFIED
:DEGREES
499
root 15.942 15.9524 11.6889 191.08 17.3004 182.414
lowerback -2.96759 2.45966 2.05337
upperback -6.11603 3.64257 -0.786538
thorax -4.48357 1.86817 -2.00345
lowerneck 13.5429 -9.70252 -32.9808
upperneck 11.1149 -18.5073 32.7474
head 7.81856 -9.85299 16.9682
rclavicle 9.11925e-015 7.95139e-015
rhumerus -38.9122 -15.2153 -76.9551
rradius 26.5072
rwrist 23.0229
rhand -4.97593 -0.216228
rfingers 7.12502
rthumb 20.8165 -29.1195
lclavicle 9.11925e-015 7.95139e-015
lhumerus -54.5091 4.24325 76.3641
lradius 30.9113
lwrist 37.249
lhand -15.8346 -6.41581
lfingers 7.12502
lthumb 10.3597 23.309
rfemur -38.3941 12.4724 16.9405
rtibia 34.906
rfoot -11.2852 12.8453
rtoes -12.6342
lfemur -6.21197 -22.4491 -18.67
ltibia 33.534
lfoot 35.1033 -35.6967
ltoes 49.44
500
root 16.0153 15.9547 11.5917 191.106 17.0803 182.764
lowerback -3.0027 2.50775 2.46769
upperback -6.1016 3.70875 -0.706711
thorax -4.42775 1.88601 -2.14901
lowerneck 13.5186 -9.70694 -32.9807
upperneck 11.0698 -18.501 32.7834
head 7.8114 -9.84609 16.9833
rclavicle -4.90501e-014 -1.07344e-014
rhumerus -39.0258 -15.4697 -76.8135
rradius 26.1139
rwrist 23.4914
rhand -4.71855 -0.146054
rfingers 7.12502
rthumb 21.0638 -29.022
lclavicle -4.90501e-014 -1.07344e-014
lhumerus -54.7364 4.42012 76.3752
lradius 31.1354
lwrist 37.4506
lhand -15.6104 -6.3416
lfingers 7.12502
lthumb 10.576 23.3723
rfemur -37.8284 12.2856 17.6293
rtibia 34.9731
rfoot -11.7983 13.051
rtoes -12.3644
lfemur -6.29846 -21.6043 -18.1692
ltibia 34.3392
lfoot 36.5965 -34.7268
ltoes 49.8115
501
root 16.0881 15.9579 11.4958 191.101 16.8656 183.034
lowerback -3.01156 2.54643 2.79854
upperback -6.09044 3.76214 -0.648401
thorax -4.39376 1.90036 -2.27182
lowerneck 13.5069 -9.70817 -32.9826
upperneck 11.0224 -18.4934 32.824
head 7.80164 -9.83961 17.0025
rclavicle -6.99474e-014 -1.86858e-014
rhumerus -39.1348 -15.7143 -76.6744
rradius 25.7372
rwrist 23.9485
rhand -4.48126 -0.0887454
rfingers 7.12502
rthumb 21.2918 -28.9392
lclavicle -6.99474e-014 -1.86858e-014
lhumerus -54.9602 4.57875 76.4023
lradius 31.4027
lwrist 37.7054
lhand -15.3729 -6.28764
lfingers 7.12502
lthumb 10.8051 23.4144
rfemur -37.2409 11.9666 18.2789
rtibia 35.0194
rfoot -12.3367 13.3559
rtoes -11.9686
lfemur -6.44691 -20.6294 -17.7146
ltibia 35.1969
lfoot 38.1795 -33.592
ltoes 50.1824
502
root 16.1605 15.9626 11.401 191.064 16.6497 183.223
lowerback -2.98866 2.57282 3.03862
upperback -6.08731 3.79997 -0.606455
thorax -4.39079 1.90999 -2.36316
lowerneck 13.494 -9.70187 -32.9973
upperneck 11.0027 -18.4785 32.8641
head 7.79965 -9.82939 17.0283
rclavicle 8.67198e-015 4.77083e-015
rhumerus -39.2495 -15.8893 -76.5589
rradius 25.4072
rwrist 24.3375
rhand -4.23886 -0.116967
rfingers 7.12502
rthumb 21.5246 -28.9409
lclavicle 8.67198e-015 4.77083e-015
lhumerus -55.1736 4.72074 76.45
lradius 31.6933
lwrist 37.9923
lhand -15.1148 -6.24002
lfingers 7.12502
lthumb 11.054 23.4489
rfemur -36.6304 11.522 18.8796
rtibia 35.0455
rfoot -12.8984 13.7425
rtoes -11.4664
lfemur -6.66257 -19.5559 -17.3063
ltibia 36.106
lfoot 39.8287 -32.2816
ltoes 50.4966
503
root 16.2325 15.9687 11.3075 190.996 16.4137 183.331
lowerback -2.92993 2.58375 3.19571
upperback -6.0932 3.81827 -0.582705
thorax -4.42201 1.91227 -2.4296
lowerneck 13.4894 -9.69443 -33.0186
upperneck 10.9975 -18.4656 32.903
head 7.80248 -9.82074 17.0566
rclavicle -5.43676e-014 -3.18055e-015
rhumerus -39.3726 -15.9691 -76.4827
rradius 25.1339
rwrist 24.6247
rhand -3.9955 -0.242935
rfingers 7.12502
rthumb 21.7583 -29.04
lclavicle -5.43676e-014 -3.18055e-015
lhumerus -55.3793 4.84189 76.516
lradius 32.0036
lwrist 38.2894
lhand -14.817 -6.22903
lfingers 7.12502
lthumb 11.3413 23.4443
rfemur -35.9966 10.9621 19.4221
rtibia 35.0494
rfoot -13.4744 14.1838
rtoes -10.8812
lfemur -6.94955 -18.421 -16.9416
ltibia 37.0655
lfoot 41.5067 -30.8242
ltoes 50.6564
504
root 16.3041 15.976 11.2154 190.9 16.1553 183.369
lowerback -2.83385 2.5806 3.274
upperback -6.10559 3.81867 -0.574217
thorax -4.48561 1.90776 -2.47044
lowerneck 13.4895 -9.68975 -33.0415
upperneck 11.002 -18.4586 32.9392
head 7.8098 -9.81507 17.084
rclavicle -9.19379e-015 -1.19271e-015
rhumerus -39.4915 -15.9569 -76.4498
rradius 24.9151
rwrist 24.8138
rhand -3.74705 -0.41956
rfingers 7.12502
rthumb 21.9968 -29.1888
lclavicle -9.19379e-015 -1.19271e-015
lhumerus -55.5555 4.93935 76.6038
lradius 32.3184
lwrist 38.5776
lhand -14.4829 -6.23519
lfingers 7.12502
lthumb 11.6634 23.4202
rfemur -35.345 10.3104 19.903
rtibia 35.0273
rfoot -14.0497 14.6586
rtoes -10.2456
lfemur -7.31561 -17.2551 -16.6131
ltibia 38.0764
lfoot 43.1626 -29.2635
ltoes 50.5355
505
root 16.3754 15.9845 11.125 190.787 15.8642 183.362
lowerback -2.69903 2.56592 3.30164
upperback -6.12417 3.80463 -0.577554
thorax -4.58061 1.89705 -2.49778
lowerneck 13.4924 -9.69374 -33.0568
upperneck 11.0127 -18.4634 32.973
head 7.82238 -9.81461 17.107
rclavicle -1.21756e-015 -7.95139e-015
rhumerus -39.6121 -15.8386 -76.4701
rradius 24.7581
rwrist 24.8913
rhand -3.5086 -0.655928
rfingers 7.12502
rthumb 22.2258 -29.398
lclavicle -1.21756e-015 -7.95139e-015
lhumerus -55.6917 4.99587 76.7167
lradius 32.6347
lwrist 38.8412
lhand -14.1153 -6.24631
lfingers 7.12502
lthumb 12.0179 23.3886
rfemur -34.6783 9.6012 20.3366
rtibia 34.9763
rfoot -14.612 15.1347
rtoes -9.5829
lfemur -7.76377 -16.0904 -16.2963
ltibia 39.1406
lfoot 44.7035 -27.6848
ltoes 49.9861
506
root 16.4465 15.9938 11.0362 190.659 15.5353 183.324
lowerback -2.53395 2.53814 3.28747
upperback -6.14101 3.77298 -0.585925
thorax -4.69406 1.8785 -2.50859
lowerneck 13.4913 -9.70753 -33.0656
upperneck 11.0236 -18.4806 33.0036
head 7.83952 -9.81949 17.1243
rclavicle 5.77221e-014 2.22639e-014
rhumerus -39.7163 -15.6305 -76.5327
rradius 24.6393
rwrist 24.9077
rhand -3.32724 -0.833426
rfingers 7.12502
rthumb 22.3999 -29.5547
lclavicle 5.77221e-014 2.22639e-014
lhumerus -55.7725 5.0324 76.8488
lradius 32.9414
lwrist 39.0509
lhand -13.725 -6.25295
lfingers 7.12502
lthumb 12.3943 23.3596
rfemur -33.9963 8.8716 20.7218
rtibia 34.8934
rfoot -15.1501 15.5782
rtoes -8.92923
lfemur -8.29515 -14.9336 -15.9843
ltibia 40.2669
lfoot 45.995 -26.2579
ltoes 48.8311
507
root 16.517 16.0036 10.949 190.52 15.1624 183.285
lowerback -2.33627 2.50143 3.26802
upperback -6.15443 3.72936 -0.595238
thorax -4.82345 1.85341 -2.51888
lowerneck 13.4929 -9.73279 -33.0617
upperneck 11.0295 -18.5122 33.0334
head 7.85893 -9.83085 17.1354
rclavicle 1.04113e-014 -1.03368e-014
rhumerus -39.8134 -15.3532 -76.6285
rradius 24.5619
rwrist 24.8846
rhand -3.19578 -0.955678
rfingers 7.12502
rthumb 22.5261 -29.6617
lclavicle 1.04113e-014 -1.03368e-014
lhumerus -55.7936 5.03806 77.0054
lradius 33.2287
lwrist 39.2013
lhand -13.3251 -6.31769
lfingers 7.12502
lthumb 12.7798 23.2712
rfemur -33.2902 8.14847 21.0811
rtibia 34.7709
rfoot -15.6529 15.9694
rtoes -8.30734
lfemur -8.90068 -13.804 -15.6613
ltibia 41.4698
lfoot 46.8785 -25.1106
ltoes 46.9684
